<?xml version="1.0" standalone="no"?>
<!DOCTYPE svg PUBLIC "-//W3C//DTD SVG 20010904//EN"
 "http://www.w3.org/TR/2001/REC-SVG-20010904/DTD/svg10.dtd">
<svg version="1.0" xmlns="http://www.w3.org/2000/svg"
 width="310.000000pt" height="310.000000pt" viewBox="0 0 310.000000 310.000000"
 preserveAspectRatio="xMidYMid meet">
<metadata>
Created by potrace 1.11, written by Peter Selinger 2001-2013
</metadata>
<g transform="translate(0.000000,310.000000) scale(0.100000,-0.100000)"
fill="#000000" stroke="none">
<path d="M890 3090 c-8 -5 -49 -16 -90 -25 -188 -41 -347 -129 -491 -274 -145
-144 -233 -303 -274 -491 -9 -41 -21 -83 -26 -92 -12 -23 -12 -1279 0 -1310 5
-13 17 -57 26 -98 41 -188 130 -347 274 -491 144 -145 303 -233 491 -274 41
-9 83 -21 92 -26 23 -12 1279 -12 1310 0 13 5 57 17 98 26 188 41 347 130 491
274 144 144 233 303 274 491 9 41 21 85 26 98 12 30 12 1274 0 1304 -5 13 -17
57 -26 98 -41 188 -130 347 -274 491 -144 144 -303 233 -491 274 -41 9 -85 21
-98 26 -29 12 -1292 11 -1312 -1z m374 -982 c3 -13 6 -101 6 -195 0 -95 2
-173 5 -173 2 0 34 16 70 36 l66 36 59 -36 c33 -21 64 -34 70 -31 6 4 10 80
10 196 l0 189 180 0 c144 0 186 -3 213 -16 69 -33 67 -17 67 -567 0 -486 0
-495 -21 -521 -44 -56 -47 -56 -438 -56 -311 0 -365 2 -394 16 -69 33 -67 17
-67 564 0 445 2 495 17 521 21 35 66 58 114 59 30 0 38 -4 43 -22z"/>
</g>
</svg>
